<svg width="1024" height="640" viewBox="0 0 1024 640" fill="none" xmlns="http://www.w3.org/2000/svg">
<g filter="url(#filter0_ii_11_1525)">
<rect x="200" y="57" width="64" height="91" fill="#330808"/>
</g>
<rect x="200.5" y="57.5" width="63" height="90" stroke="url(#paint0_linear_11_1525)"/>
<g filter="url(#filter1_ii_11_1525)">
<rect x="761" y="57" width="64" height="91" fill="#330808"/>
</g>
<rect x="761.5" y="57.5" width="63" height="90" stroke="url(#paint1_linear_11_1525)"/>
<g filter="url(#filter2_ii_11_1525)">
<rect x="200" y="492" width="64" height="91" fill="#081433"/>
</g>
<rect x="200.5" y="492.5" width="63" height="90" stroke="url(#paint2_linear_11_1525)"/>
<g filter="url(#filter3_ii_11_1525)">
<rect x="761" y="492" width="64" height="91" fill="#081433"/>
</g>
<rect x="761.5" y="492.5" width="63" height="90" stroke="url(#paint3_linear_11_1525)"/>
<mask id="mask0_11_1525" style="mask-type:alpha" maskUnits="userSpaceOnUse" x="200" y="57" width="625" height="526">
<path d="M200 57H264V148H200V57Z" fill="#330808"/>
<path d="M761 57H825V148H761V57Z" fill="#330808"/>
<path d="M200 492H264V583H200V492Z" fill="#081433"/>
<path d="M761 492H825V583H761V492Z" fill="#081433"/>
<path d="M200.5 57.5H263.5V147.5H200.5V57.5ZM761.5 57.5H824.5V147.5H761.5V57.5ZM200.5 492.5H263.5V582.5H200.5V492.5ZM761.5 492.5H824.5V582.5H761.5V492.5Z" stroke="url(#paint4_linear_11_1525)"/>
</mask>
<g mask="url(#mask0_11_1525)">
<rect y="60" width="1024" height="1" fill="black" fill-opacity="0.1"/>
<rect y="64" width="1024" height="1" fill="black" fill-opacity="0.1"/>
<rect y="68" width="1024" height="1" fill="black" fill-opacity="0.1"/>
<rect y="72" width="1024" height="1" fill="black" fill-opacity="0.1"/>
<rect y="76" width="1024" height="1" fill="black" fill-opacity="0.1"/>
<rect y="80" width="1024" height="1" fill="black" fill-opacity="0.1"/>
<rect y="84" width="1024" height="1" fill="black" fill-opacity="0.1"/>
<rect y="88" width="1024" height="1" fill="black" fill-opacity="0.1"/>
<rect y="92" width="1024" height="1" fill="black" fill-opacity="0.1"/>
<rect y="96" width="1024" height="1" fill="black" fill-opacity="0.1"/>
<rect y="100" width="1024" height="1" fill="black" fill-opacity="0.1"/>
<rect y="104" width="1024" height="1" fill="black" fill-opacity="0.1"/>
<rect y="108" width="1024" height="1" fill="black" fill-opacity="0.1"/>
<rect y="112" width="1024" height="1" fill="black" fill-opacity="0.1"/>
<rect y="116" width="1024" height="1" fill="black" fill-opacity="0.1"/>
<rect y="120" width="1024" height="1" fill="black" fill-opacity="0.1"/>
<rect y="124" width="1024" height="1" fill="black" fill-opacity="0.1"/>
<rect y="128" width="1024" height="1" fill="black" fill-opacity="0.1"/>
<rect y="132" width="1024" height="1" fill="black" fill-opacity="0.1"/>
<rect y="136" width="1024" height="1" fill="black" fill-opacity="0.1"/>
<rect y="140" width="1024" height="1" fill="black" fill-opacity="0.1"/>
<rect y="144" width="1024" height="1" fill="black" fill-opacity="0.1"/>
<rect y="148" width="1024" height="1" fill="black" fill-opacity="0.1"/>
<rect y="152" width="1024" height="1" fill="black" fill-opacity="0.1"/>
<rect y="156" width="1024" height="1" fill="black" fill-opacity="0.1"/>
<rect y="160" width="1024" height="1" fill="black" fill-opacity="0.1"/>
<rect y="164" width="1024" height="1" fill="black" fill-opacity="0.1"/>
<rect y="168" width="1024" height="1" fill="black" fill-opacity="0.1"/>
<rect y="172" width="1024" height="1" fill="black" fill-opacity="0.1"/>
<rect y="176" width="1024" height="1" fill="black" fill-opacity="0.1"/>
<rect y="180" width="1024" height="1" fill="black" fill-opacity="0.1"/>
<rect y="184" width="1024" height="1" fill="black" fill-opacity="0.1"/>
<rect y="188" width="1024" height="1" fill="black" fill-opacity="0.1"/>
<rect y="192" width="1024" height="1" fill="black" fill-opacity="0.1"/>
<rect y="196" width="1024" height="1" fill="black" fill-opacity="0.1"/>
<rect y="200" width="1024" height="1" fill="black" fill-opacity="0.1"/>
<rect y="204" width="1024" height="1" fill="black" fill-opacity="0.1"/>
<rect y="208" width="1024" height="1" fill="black" fill-opacity="0.1"/>
<rect y="212" width="1024" height="1" fill="black" fill-opacity="0.1"/>
<rect y="216" width="1024" height="1" fill="black" fill-opacity="0.1"/>
<rect y="220" width="1024" height="1" fill="black" fill-opacity="0.1"/>
<rect y="224" width="1024" height="1" fill="black" fill-opacity="0.1"/>
<rect y="228" width="1024" height="1" fill="black" fill-opacity="0.1"/>
<rect y="232" width="1024" height="1" fill="black" fill-opacity="0.1"/>
<rect y="236" width="1024" height="1" fill="black" fill-opacity="0.1"/>
<rect y="240" width="1024" height="1" fill="black" fill-opacity="0.1"/>
<rect y="244" width="1024" height="1" fill="black" fill-opacity="0.1"/>
<rect y="248" width="1024" height="1" fill="black" fill-opacity="0.1"/>
<rect y="252" width="1024" height="1" fill="black" fill-opacity="0.1"/>
<rect y="256" width="1024" height="1" fill="black" fill-opacity="0.1"/>
<rect y="260" width="1024" height="1" fill="black" fill-opacity="0.1"/>
<rect y="264" width="1024" height="1" fill="black" fill-opacity="0.1"/>
<rect y="268" width="1024" height="1" fill="black" fill-opacity="0.1"/>
<rect y="272" width="1024" height="1" fill="black" fill-opacity="0.1"/>
<rect y="276" width="1024" height="1" fill="black" fill-opacity="0.1"/>
<rect y="280" width="1024" height="1" fill="black" fill-opacity="0.1"/>
<rect y="284" width="1024" height="1" fill="black" fill-opacity="0.1"/>
<rect y="288" width="1024" height="1" fill="black" fill-opacity="0.1"/>
<rect y="292" width="1024" height="1" fill="black" fill-opacity="0.1"/>
<rect y="296" width="1024" height="1" fill="black" fill-opacity="0.1"/>
<rect y="300" width="1024" height="1" fill="black" fill-opacity="0.1"/>
<rect y="304" width="1024" height="1" fill="black" fill-opacity="0.1"/>
<rect y="308" width="1024" height="1" fill="black" fill-opacity="0.1"/>
<rect y="312" width="1024" height="1" fill="black" fill-opacity="0.1"/>
<rect y="316" width="1024" height="1" fill="black" fill-opacity="0.1"/>
<rect y="320" width="1024" height="1" fill="black" fill-opacity="0.1"/>
<rect y="324" width="1024" height="1" fill="black" fill-opacity="0.1"/>
<rect y="328" width="1024" height="1" fill="black" fill-opacity="0.1"/>
<rect y="332" width="1024" height="1" fill="black" fill-opacity="0.1"/>
<rect y="336" width="1024" height="1" fill="black" fill-opacity="0.1"/>
<rect y="340" width="1024" height="1" fill="black" fill-opacity="0.1"/>
<rect y="344" width="1024" height="1" fill="black" fill-opacity="0.1"/>
<rect y="348" width="1024" height="1" fill="black" fill-opacity="0.1"/>
<rect y="352" width="1024" height="1" fill="black" fill-opacity="0.1"/>
<rect y="356" width="1024" height="1" fill="black" fill-opacity="0.1"/>
<rect y="360" width="1024" height="1" fill="black" fill-opacity="0.1"/>
<rect y="364" width="1024" height="1" fill="black" fill-opacity="0.1"/>
<rect y="368" width="1024" height="1" fill="black" fill-opacity="0.1"/>
<rect y="372" width="1024" height="1" fill="black" fill-opacity="0.1"/>
<rect y="376" width="1024" height="1" fill="black" fill-opacity="0.1"/>
<rect y="380" width="1024" height="1" fill="black" fill-opacity="0.1"/>
<rect y="384" width="1024" height="1" fill="black" fill-opacity="0.1"/>
<rect y="388" width="1024" height="1" fill="black" fill-opacity="0.1"/>
<rect y="392" width="1024" height="1" fill="black" fill-opacity="0.1"/>
<rect y="396" width="1024" height="1" fill="black" fill-opacity="0.1"/>
<rect y="400" width="1024" height="1" fill="black" fill-opacity="0.1"/>
<rect y="404" width="1024" height="1" fill="black" fill-opacity="0.1"/>
<rect y="408" width="1024" height="1" fill="black" fill-opacity="0.1"/>
<rect y="412" width="1024" height="1" fill="black" fill-opacity="0.1"/>
<rect y="416" width="1024" height="1" fill="black" fill-opacity="0.1"/>
<rect y="420" width="1024" height="1" fill="black" fill-opacity="0.1"/>
<rect y="424" width="1024" height="1" fill="black" fill-opacity="0.1"/>
<rect y="428" width="1024" height="1" fill="black" fill-opacity="0.1"/>
<rect y="432" width="1024" height="1" fill="black" fill-opacity="0.1"/>
<rect y="436" width="1024" height="1" fill="black" fill-opacity="0.1"/>
<rect y="440" width="1024" height="1" fill="black" fill-opacity="0.1"/>
<rect y="444" width="1024" height="1" fill="black" fill-opacity="0.1"/>
<rect y="448" width="1024" height="1" fill="black" fill-opacity="0.1"/>
<rect y="452" width="1024" height="1" fill="black" fill-opacity="0.1"/>
<rect y="456" width="1024" height="1" fill="black" fill-opacity="0.1"/>
<rect y="460" width="1024" height="1" fill="black" fill-opacity="0.1"/>
<rect y="464" width="1024" height="1" fill="black" fill-opacity="0.1"/>
<rect y="468" width="1024" height="1" fill="black" fill-opacity="0.1"/>
<rect y="472" width="1024" height="1" fill="black" fill-opacity="0.1"/>
<rect y="476" width="1024" height="1" fill="black" fill-opacity="0.1"/>
<rect y="480" width="1024" height="1" fill="black" fill-opacity="0.1"/>
<rect y="484" width="1024" height="1" fill="black" fill-opacity="0.1"/>
<rect y="488" width="1024" height="1" fill="black" fill-opacity="0.1"/>
<rect y="492" width="1024" height="1" fill="black" fill-opacity="0.1"/>
<rect y="496" width="1024" height="1" fill="black" fill-opacity="0.1"/>
<rect y="500" width="1024" height="1" fill="black" fill-opacity="0.1"/>
<rect y="504" width="1024" height="1" fill="black" fill-opacity="0.1"/>
<rect y="508" width="1024" height="1" fill="black" fill-opacity="0.1"/>
<rect y="512" width="1024" height="1" fill="black" fill-opacity="0.1"/>
<rect y="516" width="1024" height="1" fill="black" fill-opacity="0.1"/>
<rect y="520" width="1024" height="1" fill="black" fill-opacity="0.1"/>
<rect y="524" width="1024" height="1" fill="black" fill-opacity="0.1"/>
<rect y="528" width="1024" height="1" fill="black" fill-opacity="0.1"/>
<rect y="532" width="1024" height="1" fill="black" fill-opacity="0.1"/>
<rect y="536" width="1024" height="1" fill="black" fill-opacity="0.1"/>
<rect y="540" width="1024" height="1" fill="black" fill-opacity="0.1"/>
<rect y="544" width="1024" height="1" fill="black" fill-opacity="0.1"/>
<rect y="548" width="1024" height="1" fill="black" fill-opacity="0.1"/>
<rect y="552" width="1024" height="1" fill="black" fill-opacity="0.1"/>
<rect y="556" width="1024" height="1" fill="black" fill-opacity="0.1"/>
<rect y="560" width="1024" height="1" fill="black" fill-opacity="0.1"/>
<rect y="564" width="1024" height="1" fill="black" fill-opacity="0.1"/>
<rect y="568" width="1024" height="1" fill="black" fill-opacity="0.1"/>
<rect y="572" width="1024" height="1" fill="black" fill-opacity="0.1"/>
<rect y="576" width="1024" height="1" fill="black" fill-opacity="0.1"/>
<rect y="580" width="1024" height="1" fill="black" fill-opacity="0.1"/>
</g>
<defs>
<filter id="filter0_ii_11_1525" x="200" y="57" width="64" height="91" filterUnits="userSpaceOnUse" color-interpolation-filters="sRGB">
<feFlood flood-opacity="0" result="BackgroundImageFix"/>
<feBlend mode="normal" in="SourceGraphic" in2="BackgroundImageFix" result="shape"/>
<feColorMatrix in="SourceAlpha" type="matrix" values="0 0 0 0 0 0 0 0 0 0 0 0 0 0 0 0 0 0 127 0" result="hardAlpha"/>
<feOffset/>
<feGaussianBlur stdDeviation="6"/>
<feComposite in2="hardAlpha" operator="arithmetic" k2="-1" k3="1"/>
<feColorMatrix type="matrix" values="0 0 0 0 1 0 0 0 0 0.401351 0 0 0 0 0.401351 0 0 0 0.41 0"/>
<feBlend mode="normal" in2="shape" result="effect1_innerShadow_11_1525"/>
<feColorMatrix in="SourceAlpha" type="matrix" values="0 0 0 0 0 0 0 0 0 0 0 0 0 0 0 0 0 0 127 0" result="hardAlpha"/>
<feOffset/>
<feGaussianBlur stdDeviation="2"/>
<feComposite in2="hardAlpha" operator="arithmetic" k2="-1" k3="1"/>
<feColorMatrix type="matrix" values="0 0 0 0 1 0 0 0 0 0.401351 0 0 0 0 0.401351 0 0 0 0.75 0"/>
<feBlend mode="normal" in2="effect1_innerShadow_11_1525" result="effect2_innerShadow_11_1525"/>
</filter>
<filter id="filter1_ii_11_1525" x="761" y="57" width="64" height="91" filterUnits="userSpaceOnUse" color-interpolation-filters="sRGB">
<feFlood flood-opacity="0" result="BackgroundImageFix"/>
<feBlend mode="normal" in="SourceGraphic" in2="BackgroundImageFix" result="shape"/>
<feColorMatrix in="SourceAlpha" type="matrix" values="0 0 0 0 0 0 0 0 0 0 0 0 0 0 0 0 0 0 127 0" result="hardAlpha"/>
<feOffset/>
<feGaussianBlur stdDeviation="6"/>
<feComposite in2="hardAlpha" operator="arithmetic" k2="-1" k3="1"/>
<feColorMatrix type="matrix" values="0 0 0 0 1 0 0 0 0 0.401351 0 0 0 0 0.401351 0 0 0 0.41 0"/>
<feBlend mode="normal" in2="shape" result="effect1_innerShadow_11_1525"/>
<feColorMatrix in="SourceAlpha" type="matrix" values="0 0 0 0 0 0 0 0 0 0 0 0 0 0 0 0 0 0 127 0" result="hardAlpha"/>
<feOffset/>
<feGaussianBlur stdDeviation="2"/>
<feComposite in2="hardAlpha" operator="arithmetic" k2="-1" k3="1"/>
<feColorMatrix type="matrix" values="0 0 0 0 1 0 0 0 0 0.401351 0 0 0 0 0.401351 0 0 0 0.75 0"/>
<feBlend mode="normal" in2="effect1_innerShadow_11_1525" result="effect2_innerShadow_11_1525"/>
</filter>
<filter id="filter2_ii_11_1525" x="200" y="492" width="64" height="91" filterUnits="userSpaceOnUse" color-interpolation-filters="sRGB">
<feFlood flood-opacity="0" result="BackgroundImageFix"/>
<feBlend mode="normal" in="SourceGraphic" in2="BackgroundImageFix" result="shape"/>
<feColorMatrix in="SourceAlpha" type="matrix" values="0 0 0 0 0 0 0 0 0 0 0 0 0 0 0 0 0 0 127 0" result="hardAlpha"/>
<feOffset/>
<feGaussianBlur stdDeviation="6"/>
<feComposite in2="hardAlpha" operator="arithmetic" k2="-1" k3="1"/>
<feColorMatrix type="matrix" values="0 0 0 0 0.401351 0 0 0 0 0.560558 0 0 0 0 1 0 0 0 0.41 0"/>
<feBlend mode="normal" in2="shape" result="effect1_innerShadow_11_1525"/>
<feColorMatrix in="SourceAlpha" type="matrix" values="0 0 0 0 0 0 0 0 0 0 0 0 0 0 0 0 0 0 127 0" result="hardAlpha"/>
<feOffset/>
<feGaussianBlur stdDeviation="2"/>
<feComposite in2="hardAlpha" operator="arithmetic" k2="-1" k3="1"/>
<feColorMatrix type="matrix" values="0 0 0 0 0.401351 0 0 0 0 0.560558 0 0 0 0 1 0 0 0 0.75 0"/>
<feBlend mode="normal" in2="effect1_innerShadow_11_1525" result="effect2_innerShadow_11_1525"/>
</filter>
<filter id="filter3_ii_11_1525" x="761" y="492" width="64" height="91" filterUnits="userSpaceOnUse" color-interpolation-filters="sRGB">
<feFlood flood-opacity="0" result="BackgroundImageFix"/>
<feBlend mode="normal" in="SourceGraphic" in2="BackgroundImageFix" result="shape"/>
<feColorMatrix in="SourceAlpha" type="matrix" values="0 0 0 0 0 0 0 0 0 0 0 0 0 0 0 0 0 0 127 0" result="hardAlpha"/>
<feOffset/>
<feGaussianBlur stdDeviation="6"/>
<feComposite in2="hardAlpha" operator="arithmetic" k2="-1" k3="1"/>
<feColorMatrix type="matrix" values="0 0 0 0 0.401351 0 0 0 0 0.560558 0 0 0 0 1 0 0 0 0.41 0"/>
<feBlend mode="normal" in2="shape" result="effect1_innerShadow_11_1525"/>
<feColorMatrix in="SourceAlpha" type="matrix" values="0 0 0 0 0 0 0 0 0 0 0 0 0 0 0 0 0 0 127 0" result="hardAlpha"/>
<feOffset/>
<feGaussianBlur stdDeviation="2"/>
<feComposite in2="hardAlpha" operator="arithmetic" k2="-1" k3="1"/>
<feColorMatrix type="matrix" values="0 0 0 0 0.401351 0 0 0 0 0.560558 0 0 0 0 1 0 0 0 0.75 0"/>
<feBlend mode="normal" in2="effect1_innerShadow_11_1525" result="effect2_innerShadow_11_1525"/>
</filter>
<linearGradient id="paint0_linear_11_1525" x1="232" y1="57" x2="232" y2="148" gradientUnits="userSpaceOnUse">
<stop stop-color="#ED9595"/>
<stop offset="1" stop-color="#AB4040"/>
</linearGradient>
<linearGradient id="paint1_linear_11_1525" x1="793" y1="57" x2="793" y2="148" gradientUnits="userSpaceOnUse">
<stop stop-color="#ED9595"/>
<stop offset="1" stop-color="#AB4040"/>
</linearGradient>
<linearGradient id="paint2_linear_11_1525" x1="232" y1="583" x2="232" y2="492" gradientUnits="userSpaceOnUse">
<stop stop-color="#A2C8F5"/>
<stop offset="1" stop-color="#4071AB"/>
</linearGradient>
<linearGradient id="paint3_linear_11_1525" x1="793" y1="583" x2="793" y2="492" gradientUnits="userSpaceOnUse">
<stop stop-color="#A2C8F5"/>
<stop offset="1" stop-color="#4071AB"/>
</linearGradient>
<linearGradient id="paint4_linear_11_1525" x1="793" y1="583" x2="793" y2="492" gradientUnits="userSpaceOnUse">
<stop stop-color="#A2C8F5"/>
<stop offset="1" stop-color="#4071AB"/>
</linearGradient>
</defs>
</svg>
